<mxfile host="app.diagrams.net" modified="2022-03-30T12:37:55.571Z" agent="5.0 (Windows NT 10.0; Win64; x64) AppleWebKit/537.36 (KHTML, like Gecko) Chrome/99.0.4844.84 Safari/537.36" etag="hvLjFDwVJOOC2DSv5Z88" version="17.2.5" type="github">
  <diagram id="KgjO5GRndWXROC4v5zge" name="Page-1">
    <mxGraphModel dx="1422" dy="800" grid="1" gridSize="10" guides="1" tooltips="1" connect="1" arrows="1" fold="1" page="1" pageScale="1" pageWidth="827" pageHeight="1169" math="0" shadow="0">
      <root>
        <mxCell id="0" />
        <mxCell id="1" parent="0" />
        <mxCell id="6PmD7o7Xh8_uWYpsSZii-1" value="&lt;b&gt;&lt;font style=&quot;font-size: 20px&quot;&gt;É&lt;/font&gt;&lt;/b&gt; um site de vagas de emprego do exterior em dólar&amp;nbsp;&lt;table&gt;&lt;tbody&gt;&lt;tr&gt;&lt;td&gt;&lt;br&gt;&lt;/td&gt;&lt;td&gt;&lt;br&gt;&lt;/td&gt;&lt;/tr&gt;&lt;/tbody&gt;&lt;/table&gt;" style="rounded=0;whiteSpace=wrap;html=1;align=left;verticalAlign=top;" parent="1" vertex="1">
          <mxGeometry x="34" y="230" width="190" height="150" as="geometry" />
        </mxCell>
        <mxCell id="6PmD7o7Xh8_uWYpsSZii-2" value="&lt;b&gt;&lt;font style=&quot;font-size: 20px&quot;&gt;Não é &lt;/font&gt;&lt;/b&gt;um site de vagas de empregos&amp;nbsp; nacionais&amp;nbsp;" style="rounded=0;whiteSpace=wrap;html=1;verticalAlign=top;align=left;" parent="1" vertex="1">
          <mxGeometry x="224" y="230" width="190" height="150" as="geometry" />
        </mxCell>
        <mxCell id="6PmD7o7Xh8_uWYpsSZii-3" value="&lt;b&gt;&lt;font style=&quot;font-size: 20px&quot;&gt;Faz &lt;/font&gt;&lt;/b&gt;o cadastro de vagas de emprego do exterior em&amp;nbsp; dólar, a&amp;nbsp; sua busca e converte os valores para real exibindo todos os descontos&amp;nbsp;" style="rounded=0;whiteSpace=wrap;html=1;align=left;verticalAlign=top;" parent="1" vertex="1">
          <mxGeometry x="34" y="380" width="190" height="150" as="geometry" />
        </mxCell>
        <mxCell id="6PmD7o7Xh8_uWYpsSZii-4" value="&lt;b&gt;&lt;font style=&quot;font-size: 20px&quot;&gt;Não faz &lt;/font&gt;&lt;/b&gt;o cadasto de vagas de emprego nacionais&amp;nbsp; e não cálculo seus encargos." style="rounded=0;whiteSpace=wrap;html=1;verticalAlign=top;align=left;" parent="1" vertex="1">
          <mxGeometry x="224" y="380" width="190" height="150" as="geometry" />
        </mxCell>
        <mxCell id="hbAe3KTAuHAPxwTn_Dz5-1" value="Para [], que [], o [] é um [] que [].&amp;nbsp; Ao contrário de [], nosso produto[]." style="rounded=0;whiteSpace=wrap;html=1;align=left;verticalAlign=top;" vertex="1" parent="1">
          <mxGeometry x="30" y="40" width="440" height="160" as="geometry" />
        </mxCell>
      </root>
    </mxGraphModel>
  </diagram>
</mxfile>
